<?xml version="1.0" encoding="UTF-8"?>
<svg width="176px" height="200px" viewBox="0 0 176 200" version="1.1" xmlns="http://www.w3.org/2000/svg" xmlns:xlink="http://www.w3.org/1999/xlink">
    <title>CTLogoOnly</title>
    <g id="CTLogoOnly" stroke="none" stroke-width="1" fill="none" fill-rule="evenodd">
        <g id="CTLogo" transform="translate(2.000000, 0.000000)">
            <path d="M148.385738,140.577839 C142.089031,148.249517 134.567132,154.253614 125.818423,158.577989 C117.064859,162.908031 107.77234,165.071028 97.9400575,165.071028 C86.3339176,165.071028 75.5200249,162.074241 65.4902871,156.070953 C55.4605493,150.070903 47.5413131,142.006615 41.7422893,131.872423 C35.9392193,121.74147 33.0397074,110.772679 33.0397074,98.9684785 C33.0397074,87.1650878 35.9392193,76.2003442 41.7422893,66.0653431 C41.841826,65.8929185 41.9526921,65.7318271 42.0522288,65.560212 L18.1051576,41.6053436 C16.3474853,44.1026662 14.6853035,46.6955103 13.1275138,49.391971 C4.37394971,64.5442834 0,81.069516 0,98.9684785 C0,116.873107 4.37394971,133.39915 13.1275138,148.545795 C21.8762225,163.696489 33.7777356,175.745159 48.8223422,184.694236 C63.8677581,193.648979 80.2403299,198.120684 97.9400575,198.120684 C112.884318,198.120684 127.044424,194.875379 140.420375,188.383959 C153.793089,181.89092 165.09981,172.844703 174.346202,161.233975 L148.385738,140.577839 L170.383788,165.071028" id="Fill-1" fill="#AA66C9"></path>
            <path d="M97.50575,0 C79.7311738,0 63.2893657,4.43347574 48.1803257,13.301238 C39.7042453,18.27552 32.242369,24.2641176 25.7556889,31.2248691 L49.2806721,54.6960205 C53.7243162,49.720117 58.8749775,45.4650181 64.7708512,41.971264 C69.3754027,39.2412873 74.1839327,37.150224 79.1899399,35.6810474 L79.1899399,128.820524 C79.4906254,129.069441 79.9627829,129.439168 80.5739058,129.870515 C84.8574552,132.896435 96.3111346,139.079626 108.745699,129.870515 C109.19754,129.536464 109.650193,129.175656 110.10366,128.799443 L110.10366,34.3659234 C114.739092,35.2991587 119.281069,36.7407681 123.724713,38.7199404 C132.116276,42.4650436 139.471694,47.7855388 145.795028,54.6806152 L170.383788,32.5124257 C161.098295,22.070893 150.090768,14.0398804 137.352267,8.42425255 C124.612954,2.80781392 111.328344,0 97.50575,0 Z" id="Fill-9" fill="#41095A"></path>
        </g>
    </g>
</svg>